<?xml version="1.0" encoding="utf-8"?>
<!-- Generator: Adobe Illustrator 20.1.0, SVG Export Plug-In . SVG Version: 6.00 Build 0)  -->
<svg version="1.1" id="Calque_1" xmlns="http://www.w3.org/2000/svg" xmlns:xlink="http://www.w3.org/1999/xlink" x="0px" y="0px"
	 viewBox="0 0 960 560" style="enable-background:new 0 0 960 560;" xml:space="preserve">
<style type="text/css">
	.st0{fill:#492605;stroke:#000000;stroke-miterlimit:10;}
	.st1{fill:#F2FF25;stroke:#000000;stroke-miterlimit:10;}
	.st2{fill:#825F19;stroke:#000000;stroke-miterlimit:10;}
	.st3{fill:#EAC872;stroke:#000000;stroke-miterlimit:10;}
	.st4{fill:#01637E;stroke:#000000;stroke-miterlimit:10;}
	.st5{stroke:#000000;stroke-miterlimit:10;}
	.st6{fill:#FCE3C1;stroke:#000000;stroke-miterlimit:10;}
	.st7{fill:#727271;stroke:#000000;stroke-miterlimit:10;}
	.st8{fill:#796744;stroke:#000000;stroke-miterlimit:10;}
	.st9{fill:#A80004;stroke:#000000;stroke-miterlimit:10;}
	.st10{fill:#FFFFFF;stroke:#000000;stroke-miterlimit:10;}
</style>
<polygon class="st0" points="389.7,265 442.7,462.2 451.7,461.4 399.5,262.6 "/>
<polygon class="st1" points="456.5,151.5 541.9,131.5 537.2,116 456.5,135.2 "/>
<polygon class="st2" points="459.3,134.6 452.5,108.5 526.5,92.5 534.1,116.7 "/>
<polygon class="st2" points="456.5,151.5 412,189.8 612.5,142.2 541.9,131.5 "/>
<path class="st3" d="M445.3,182l-1.9,77.7c0,0-14.8-5.8-17.9-3.4c-3.1,2.3-4.2,10.3,0,17.7s13,10.3,13,10.3s-6.8-4.2,0,21.8
	c6.8,25.9,46.5,33.4,46.5,33.4h12.7l68.3-7.1c0,0,37.8-3,41.3-20.7c3.5-17.7-6.8-23.7-6.8-23.7s5.9-3.7,8.9-17.7s0-15.3,0-15.3
	l-13.8,7.7l-25-110.5L445.3,182z"/>
<polygon class="st4" points="489,299 557.1,289.3 592.8,326 575,352.7 568.7,348 572.7,321 557.1,315.3 560.1,338 489,348 
	485.3,328.3 425.3,344.7 422.8,333.3 "/>
<path class="st5" d="M484.8,426.9l25.8,1.1c0,0,1.5,0.3,0,10s-5,15.3-6.8,21.3s0.8,10.2,0.8,10.2H466c0,0,3-7.2,8.3-10.5
	c5.3-3.3,11-3,11-3L484.8,426.9z"/>
<polygon class="st5" points="542.6,429.3 570.3,420.3 568.7,458.3 587,466.7 553.3,468 "/>
<polygon class="st6" points="490,398.8 488.6,426.9 507.8,427.9 518.6,395.4 "/>
<polygon class="st6" points="532.3,393.8 546.9,427.9 566,421.7 559.7,390.6 "/>
<circle class="st6" cx="419.4" cy="340.4" r="13.6"/>
<polygon class="st7" points="385.2,266.8 405.9,262.1 398.5,241.3 381.1,245.5 "/>
<path class="st7" d="M344.5,183.6l16.9,63.7c0,0,15.9,3.3,31.4-1.2c15.5-4.6,24.9-22.4,24.9-22.4l-23.5-60.6l15.5,55.1
	c0,0-4.8,11.3-20.2,15.7c-2,0.6-3.9,1-5.7,1.4c-11.4,2.3-16.6,0.5-16.6,0.5L344.5,183.6z"/>
<polygon class="st7" points="369.1,171.6 397,230.8 383.8,235.3 "/>
<path class="st6" d="M453.5,243.8c0,0,3.1,61.4,68.7,49.5c65.5-11.9,51.6-69.7,51.6-69.7l-17.9-59.3l-102.4,25.4V243.8z"/>
<path class="st3" d="M583.7,209.9c0,0-5.1,7.8-27.4-1.9S532,175.3,532,175.3s-3,23.7-27,37.3c-24,13.7-44.3,2.3-44.3,2.3
	s2.7,6.5-1.7,18.7s-15.4,19-15.4,19l1.7-70.6l125.4-29.9L583.7,209.9z"/>
<circle class="st8" cx="476.7" cy="238.7" r="5.7"/>
<circle class="st8" cx="554.6" cy="231.1" r="5.4"/>
<circle class="st6" cx="571.3" cy="358.2" r="13.7"/>
<polygon class="st9" points="489,348 476.7,400.3 582,388 560.1,338 "/>
<polygon class="st0" points="492.4,298.5 495.7,356.3 503.6,355 500.6,297.3 "/>
<polygon class="st0" points="539.6,292 544.3,349.5 552,349.5 547.6,290.7 "/>
<path class="st10" d="M473.7,259l83-10.7c0,0,6.7,22.5-35.3,33.1C479.3,292,473.7,259,473.7,259z"/>
<path class="st6" d="M507.8,296.3c0,0-2.8,22.7,14.9,20c17.7-2.7,12.7-23.9,12.7-23.9L507.8,296.3z"/>
<circle class="st1" cx="548.1" cy="349.9" r="6.4"/>
<circle class="st1" cx="499.4" cy="357.9" r="6.2"/>
</svg>
