<?xml version="1.0" encoding="utf-8"?>
<!-- Generator: Adobe Illustrator 15.1.0, SVG Export Plug-In . SVG Version: 6.00 Build 0)  -->
<!DOCTYPE svg PUBLIC "-//W3C//DTD SVG 1.1//EN" "http://www.w3.org/Graphics/SVG/1.1/DTD/svg11.dtd">
<svg version="1.1" id="couleur" xmlns="http://www.w3.org/2000/svg" xmlns:xlink="http://www.w3.org/1999/xlink" x="0px" y="0px"
	 width="1190.55px" height="841.89px" viewBox="0 0 1190.55 841.89" enable-background="new 0 0 1190.55 841.89"
	 xml:space="preserve">
<path fill="none" stroke="#000000" stroke-miterlimit="10" d="M649.874,383.085v20.319c0,0-7.299,33.019-46.856,35.896
	c-39.556,2.879-49.572-18.004-49.572-18.004l-6.882-19.764"/>
<path fill="none" stroke="#000000" stroke-miterlimit="10" d="M635,402.333l-67.333,8.801c0,0,4.457,22.225,33.667,17.866
	c22.333-3.333,27.917-11.75,29-13.333C634.667,409.333,635,402.333,635,402.333z"/>
<path fill="none" stroke="#000000" stroke-miterlimit="10" d="M540.667,407.333l-1.333,3.801c0,0,0.667-2.408-8.333-3.771
	s-6.333,0-6.333,0s-3.667,6.638,0,16.304S536,433,536,433s-4,3.001-1,13.667s10.333,14,10.333,14"/>
<path fill="none" stroke="#000000" stroke-miterlimit="10" d="M644.331,371.72c0,0-2.331,0.947,2.336,7.613s9.333,7.333,9.333,7.333
	"/>
<polyline fill="none" stroke="#000000" stroke-miterlimit="10" points="514.104,353.333 683.104,313.333 622.771,304.333 
	610.438,271.333 547.771,285.333 551.771,320.333 514.104,353.333 "/>
<path fill="none" stroke="#000000" stroke-miterlimit="10" d="M551.146,307.021c-0.024-0.216,67.728-15.516,67.728-15.516"/>
<line fill="none" stroke="#000000" stroke-miterlimit="10" x1="552.567" y1="319.458" x2="623.667" y2="304.333"/>
<polyline fill="none" stroke="#000000" stroke-miterlimit="10" points="653.334,484.334 664.667,466.334 635,437.667 578,446.334 
	527.333,471.667 "/>
<polyline fill="none" stroke="#000000" stroke-miterlimit="10" points="532.333,482 578,469 578,485.667 566.333,529 639,520.356 
	656,518.334 639,477 635,458.667 649.874,465 643.749,482 "/>
<line fill="none" stroke="#000000" stroke-miterlimit="10" x1="581.832" y1="445.751" x2="584.333" y2="490"/>
<line fill="none" stroke="#000000" stroke-miterlimit="10" x1="588.999" y1="444.661" x2="591" y2="490"/>
<line fill="none" stroke="#000000" stroke-miterlimit="10" x1="622.463" y1="439.573" x2="624.667" y2="484.334"/>
<line fill="none" stroke="#000000" stroke-miterlimit="10" x1="628.938" y1="438.589" x2="630.667" y2="482.667"/>
<line fill="none" stroke="#000000" stroke-miterlimit="10" x1="591" y1="484.334" x2="624.453" y2="479.994"/>
<line fill="none" stroke="#000000" stroke-miterlimit="10" x1="579.333" y1="484.334" x2="583.083" y2="484.334"/>
<line fill="none" stroke="#000000" stroke-miterlimit="10" x1="630.667" y1="478.334" x2="639" y2="477"/>
<line fill="none" stroke="#000000" stroke-miterlimit="10" x1="579.333" y1="527.453" x2="577.333" y2="552"/>
<line fill="none" stroke="#000000" stroke-miterlimit="10" x1="603.248" y1="524.609" x2="594.167" y2="552"/>
<line fill="none" stroke="#000000" stroke-miterlimit="10" x1="614.039" y1="523.325" x2="624.667" y2="551"/>
<g id="XMLID_1_">
	<g>
	</g>
	<g>
		<path fill="none" stroke="#000000" stroke-miterlimit="10" d="M555,373.33c0,0,0.01,0.01,0.03,0.01c0.13,0.05,0.62,0.26,1.16,0.77
			c1.7,1.61,3.89,6.22-3.52,18.22c-10.14,16.4-12,15-12,15l2.85-60.63"/>
		<path fill="none" stroke="#000000" stroke-miterlimit="10" d="M657.85,370.71c-1.06,0.25-7.58,1.7-15.08,0.87
			c-4.93-0.55-10.27-2.08-14.77-5.58c-12-9.33-13-25-13-25s-14.33,31-32,35.67c-14.18,3.74-23.63-0.67-26.81-2.56
			c-0.67-0.4-1.06-0.68-1.16-0.77"/>
		<path fill="none" stroke="#000000" stroke-miterlimit="10" d="M657.85,370.71L646.9,321.9l11.1,48.77
			C658,370.67,657.95,370.68,657.85,370.71z"/>
		<path fill="none" stroke="#000000" stroke-miterlimit="10" d="M666.67,438.59c0,0,9-3.92,12.66-17.65c3.67-13.72,0-13.58,0-13.58
			L668,415.95l-10.15-45.24"/>
	</g>
</g>
<path fill="none" stroke="#000000" stroke-miterlimit="10" d="M670.168,433.712c0,0,11.166,7.954,9.166,20.288
	s-16.218,14.797-16.218,14.797"/>
<path fill="none" stroke="#000000" stroke-miterlimit="10" d="M594.167,443.876c0,0-2.047,18.169,13.56,14.791
	s8.76-18.185,8.76-18.185"/>
<line fill="none" stroke="#000000" stroke-miterlimit="10" x1="639" y1="520.356" x2="642.667" y2="546.334"/>
<path fill="none" stroke="#000000" stroke-miterlimit="10" d="M596,552l-11.667,2.001l-9-2.001v24.001c0,0,2-0.666-7.667,2.667
	s-9.667,7-9.667,7h33l1.667-13.667c0,0,0.666,0.333,3.333-9.667S596,552,596,552z"/>
<polygon fill="none" stroke="#000000" stroke-miterlimit="10" points="646.898,546.334 635,549.001 621,554.001 632.667,585.668 
	659,585.668 645,577.668 "/>
<path fill="none" stroke="#000000" stroke-miterlimit="10" d="M584.333,554.001"/>
<path fill="none" stroke="#000000" stroke-miterlimit="10" d="M560.782,473.901c0,0,0.552,2.1,6.885,4.433s9.926-0.667,9.926-0.667"
	/>
<path fill="none" stroke="#000000" stroke-miterlimit="10" d="M646.898,473.259"/>
<polyline fill="none" stroke="#000000" stroke-miterlimit="10" points="524.333,490.136 549.285,583.63 539.82,586.434 
	514.125,489.663 "/>
<line fill="none" stroke="#000000" stroke-miterlimit="10" x1="519.99" y1="467.875" x2="507.349" y2="417.895"/>
<path fill="none" stroke="#000000" stroke-miterlimit="10" d="M510.458,472.009c-0.189-2.249-12.294-50.716-12.294-50.716"/>
<path fill="none" stroke="#000000" stroke-miterlimit="10" d="M504.312,400.253l5.591,17.427l-16.721,4.032
	c-0.468-1.583-5.019-15.918-5.019-15.918"/>
<path fill="none" stroke="#000000" stroke-miterlimit="10" d="M474.433,405.611c0,0,12.958,2.924,23.916-2.012
	c10.958-4.936,21.641-17.123,21.641-17.123l-19.486-49.96l12.59,43.097c0,0-8.803,11.11-16.053,14.396
	c-7.25,3.286-15.942,3.349-15.942,3.349l-21.544-45.354L474.433,405.611z"/>
<polyline fill="none" stroke="#000000" stroke-miterlimit="10" points="492.338,395.686 477.292,344.155 500.918,391.674 "/>
<path fill="none" stroke="#000000" stroke-miterlimit="10" d="M642.667,482.667c0,0,13.666-2.335,16.333,7.333
	s-8.166,14.668-8.166,14.668"/>
<path fill="none" stroke="#000000" stroke-miterlimit="10" d="M518.571,467.875c-12.904,1.126-9.904,14.544-9.904,14.544
	S507,491.332,521,490s8.333-12.333,8.333-12.333S531.475,466.749,518.571,467.875z"/>
<line fill="none" stroke="#000000" stroke-miterlimit="10" x1="646.898" y1="473.259" x2="638.184" y2="473.259"/>
<path fill="none" stroke="#000000" stroke-miterlimit="10" d="M567.667,389.333c1.731-0.123,5.062,2.729,5.333,4.444
	c0.274,1.732-2.078,5.627-3.812,5.89c-1.993,0.302-6.059-3.156-6.188-5.167C562.889,392.763,565.931,389.457,567.667,389.333z"/>
<path fill="none" stroke="#000000" stroke-miterlimit="10" d="M632.333,383.085c-1.716,0.46-4.147,4.635-3.396,6.245
	c0.7,1.5,4.543,3.329,6.062,2.67c1.425-0.618,3.529-3.819,3.184-5.333C637.802,384.995,633.99,382.641,632.333,383.085z"/>
<path fill="none" stroke="#000000" stroke-miterlimit="10" d="M588,489.663c-1.948-0.171-6.873,1.927-6.792,3.881
	c0.086,2.076,4.758,5.217,6.792,4.79c1.636-0.344,4.751-3.12,4.667-4.79C592.589,492.028,589.511,489.796,588,489.663z"/>
<path fill="none" stroke="#000000" stroke-miterlimit="10" d="M628.797,482.667c-2.008-0.189-6.331,2.982-6.334,5
	c-0.003,1.908,2.962,5.913,4.87,5.877c2.057-0.039,6.026-3.387,6.176-5.438C633.64,486.312,630.588,482.836,628.797,482.667z"/>
</svg>
